<?xml version="1.0" encoding="UTF-8"?> <svg xmlns="http://www.w3.org/2000/svg" width="120.116" height="120.116" viewBox="0 0 120.116 120.116"><g id="Group_236" data-name="Group 236" transform="translate(-2850.173 -1846.727)"><path id="Path_2653" data-name="Path 2653" d="M344.367,69.78c-1.157,3.269-5.157,6.337-9.6,6.337-5.98,0-5.98-3.868-11.961-3.868s-5.986,3.868-11.972,3.868-5.986-3.868-11.972-3.868-5.986,3.868-11.966,3.868-5.986-3.868-11.972-3.868-5.986,3.868-11.972,3.868-5.98-3.868-11.966-3.868S245,76.117,239.019,76.117c-4.444,0-8.421-2.665-9.561-6.343" transform="translate(2623.127 1853.167)" fill="none" stroke="#0000bc" stroke-miterlimit="10" stroke-width="5"></path><path id="Path_2654" data-name="Path 2654" d="M344.367,72.968c-1.157,3.264-5.157,6.331-9.6,6.331-5.98,0-5.98-3.868-11.961-3.868S316.82,79.3,310.834,79.3s-5.986-3.868-11.972-3.868S292.876,79.3,286.9,79.3s-5.986-3.868-11.972-3.868S268.937,79.3,262.951,79.3s-5.98-3.868-11.966-3.868S245,79.3,239.019,79.3c-4.444,0-8.421-2.665-9.561-6.343" transform="translate(2623.127 1868.3)" fill="none" stroke="#0000bc" stroke-miterlimit="10" stroke-width="5"></path><rect id="Rectangle_441" data-name="Rectangle 441" width="115.116" height="115.116" transform="translate(2852.673 1849.227)" fill="none" stroke="#0000bc" stroke-miterlimit="10" stroke-width="5"></rect></g></svg> 